<?xml version="1.0" encoding="utf-8"?>
<!-- Generator: Adobe Illustrator 25.1.0, SVG Export Plug-In . SVG Version: 6.00 Build 0)  -->
<svg version="1.1" id="Layer_1" xmlns="http://www.w3.org/2000/svg" xmlns:xlink="http://www.w3.org/1999/xlink" x="0px" y="0px"
	 viewBox="0 0 753 449" style="enable-background:new 0 0 753 449;" xml:space="preserve">
<style type="text/css">
	.st0{fill:#DAE8FC;stroke:#6C8EBF;stroke-width:2;stroke-miterlimit:10;}
	.st1{font-family:'ArialMT';}
	.st2{font-size:12px;}
	.st3{fill:#D5E8D4;stroke:#82B366;}
	.st4{fill:none;stroke:#000000;stroke-miterlimit:10;}
	.st5{stroke:#000000;stroke-miterlimit:10;}
	.st6{font-size:11px;}
	.st7{fill:none;stroke:#000000;stroke-miterlimit:10;stroke-dasharray:3,3;}
	.st8{fill:#F8CECC;stroke:#B85450;}
	.st9{font-size:10px;}
</style>
<g>
	<path pointer-events="all" class="st0" d="M150.5,40.5l60,60l-60,60l-60-60L150.5,40.5z"/>
	<g transform="translate(-0.5 -0.5)">
		<text transform="matrix(1 0 0 1 116.8115 104.5)" class="st1 st2">conditional...</text>
	</g>
	<rect x="90.5" y="220.5" pointer-events="all" class="st3" width="120" height="60"/>
	<g transform="translate(-0.5 -0.5)">
		<text transform="matrix(1 0 0 1 116.1553 254.5)" class="st1 st2">commands...</text>
	</g>
	<path pointer-events="stroke" class="st4" d="M150.5,160.5v53.6"/>
	<path pointer-events="all" class="st5" d="M150.5,219.4l-3.5-7l3.5,1.8l3.5-1.8L150.5,219.4z"/>
	<g transform="translate(-0.5 -0.5)">
		<text transform="matrix(1 0 0 1 122.7646 194.5)" class="st1 st6">true (doğru)</text>
	</g>
	<path pointer-events="stroke" class="st4" d="M150.5,280.5v50c0,6.7-3.3,10-10,10h-80c-6.7,0-10-3.3-10-10v-220c0-6.7,3.3-10,10-10
		h23.6"/>
	<path pointer-events="all" class="st5" d="M89.4,100.5l-7,3.5l1.8-3.5L82.4,97L89.4,100.5z"/>
	<path pointer-events="stroke" class="st7" d="M151.1,36.7l0.4-36.2"/>
	<path pointer-events="stroke" class="st4" d="M210.5,100.5h30c6.7,0,10,3.3,10,10v260c0,6.7-3.3,10-10,10h-90c-6.7,0-10,3.3-10,10
		v43.6"/>
	<path pointer-events="all" class="st5" d="M140.5,439.4l-3.5-7l3.5,1.8l3.5-1.8L140.5,439.4z"/>
	<g transform="translate(-0.5 -0.5)">
		<text transform="matrix(1 0 0 1 220.3235 244.5)" class="st1 st6">false (yanlış)</text>
	</g>
	<rect x="0.5" y="20.5" pointer-events="all" class="st8" width="100" height="40"/>
	<g transform="translate(-0.5 -0.5)">
		<text transform="matrix(1 0 0 1 9.8125 44.5)" class="st1 st2">while Döngüsü</text>
	</g>
	<path pointer-events="all" class="st0" d="M620.5,180.5l60,60l-60,60l-60-60L620.5,180.5z"/>
	<g transform="translate(-0.5 -0.5)">
		<text transform="matrix(1 0 0 1 586.8115 244.5)" class="st1 st2">conditional...</text>
	</g>
	<path pointer-events="stroke" class="st4" d="M620.5,130.5v43.6"/>
	<path pointer-events="all" class="st5" d="M620.5,179.4l-3.5-7l3.5,1.8l3.5-1.8L620.5,179.4z"/>
	<rect x="560.5" y="70.5" pointer-events="all" class="st3" width="120" height="60"/>
	<g transform="translate(-0.5 -0.5)">
		<text transform="matrix(1 0 0 1 586.1553 104.5)" class="st1 st2">commands...</text>
	</g>
	<path pointer-events="stroke" class="st4" d="M620.5,300.5v30c0,6.7-3.3,10-10,10h-80c-6.7,0-10-3.3-10-10v-220c0-6.7,3.3-10,10-10
		h23.6"/>
	<path pointer-events="all" class="st5" d="M559.4,100.5l-7,3.5l1.8-3.5l-1.8-3.5L559.4,100.5z"/>
	<g transform="translate(-0.5 -0.5)">
		<text transform="matrix(1 0 0 1 495.7646 233.5)" class="st1 st6">true (doğru)</text>
	</g>
	<path pointer-events="stroke" class="st4" d="M680.5,240.5h30c6.7,0,10,3.3,10,10v120c0,6.7-3.3,10-10,10h-90c-6.7,0-10,3.3-10,10
		v43.6"/>
	<path pointer-events="all" class="st5" d="M610.5,439.4l-3.5-7l3.5,1.8l3.5-1.8L610.5,439.4z"/>
	<g transform="translate(-0.5 -0.5)">
		<text transform="matrix(1 0 0 1 690.3235 340.5)" class="st1 st6">false (yanlış)</text>
	</g>
	<rect x="470.5" y="20.5" pointer-events="all" class="st8" width="100" height="40"/>
	<g transform="translate(-0.5 -0.5)">
		<text transform="matrix(1 0 0 1 473.953 44.5)" class="st1 st2">do-while Döngüsü</text>
	</g>
	<path pointer-events="stroke" class="st7" d="M620.5,70.5v-70"/>
</g>
<a xlink:href="https://www.diagrams.net/doc/faq/svg-export-text-problems"  transform="translate(0,-5)">
	<text transform="matrix(1 0 0 1 295.1006 449.5)" class="st1 st9">Viewer does not support full SVG 1.1</text>
</a>
</svg>
